
<svg width="13px" height="11px" viewBox="0 0 13 11" version="1.1" xmlns="http://www.w3.org/2000/svg" xmlns:xlink="http://www.w3.org/1999/xlink">
    <g id="Page-1" stroke="none" stroke-width="1" fill="none" fill-rule="evenodd">
        <g id="Page"></g>
        <g id="Default---1+-layers" transform="translate(-244.000000, -18.000000)" fill="#000000">
            <path d="M245.031818,18.8931818 L255.818182,18.8931818 C256.19474,18.8931818 256.5,19.1984422 256.5,19.575 C256.5,19.9515578 256.19474,20.2568182 255.818182,20.2568182 L245.031818,20.2568182 C244.65526,20.2568182 244.35,19.9515578 244.35,19.575 C244.35,19.1984422 244.65526,18.8931818 245.031818,18.8931818 Z M245.031818,22.9431818 L255.818182,22.9431818 C256.19474,22.9431818 256.5,23.2484422 256.5,23.625 C256.5,24.0015578 256.19474,24.3068182 255.818182,24.3068182 L245.031818,24.3068182 C244.65526,24.3068182 244.35,24.0015578 244.35,23.625 C244.35,23.2484422 244.65526,22.9431818 245.031818,22.9431818 Z M245.031818,26.9931818 L255.818182,26.9931818 C256.19474,26.9931818 256.5,27.2984422 256.5,27.675 C256.5,28.0515578 256.19474,28.3568182 255.818182,28.3568182 L245.031818,28.3568182 C244.65526,28.3568182 244.35,28.0515578 244.35,27.675 C244.35,27.2984422 244.65526,26.9931818 245.031818,26.9931818 Z" id="Combined-Shape"></path>
        </g>
    </g>
</svg>